<mxfile host="65bd71144e">
    <diagram name="หน้า-1" id="uy0Sj9bQLyXjnyI2cD-S">
        <mxGraphModel dx="2100" dy="1950" grid="1" gridSize="10" guides="1" tooltips="1" connect="1" arrows="1" fold="1" page="1" pageScale="1" pageWidth="827" pageHeight="1169" background="#ffffff" math="0" shadow="0">
            <root>
                <mxCell id="0"/>
                <mxCell id="1" parent="0"/>
                <mxCell id="ZYL11sRJDs-3X7gfMseh-36" value="" style="whiteSpace=wrap;html=1;aspect=fixed;" parent="1" vertex="1">
                    <mxGeometry x="742" y="240" width="480" height="480" as="geometry"/>
                </mxCell>
                <mxCell id="ZYL11sRJDs-3X7gfMseh-13" value="" style="edgeStyle=orthogonalEdgeStyle;rounded=0;orthogonalLoop=1;jettySize=auto;html=1;" parent="1" source="ZYL11sRJDs-3X7gfMseh-3" target="ZYL11sRJDs-3X7gfMseh-4" edge="1">
                    <mxGeometry relative="1" as="geometry"/>
                </mxCell>
                <mxCell id="ZYL11sRJDs-3X7gfMseh-3" value="start" style="ellipse;whiteSpace=wrap;html=1;" parent="1" vertex="1">
                    <mxGeometry x="310" y="50" width="120" height="80" as="geometry"/>
                </mxCell>
                <mxCell id="ZYL11sRJDs-3X7gfMseh-14" value="" style="edgeStyle=orthogonalEdgeStyle;rounded=0;orthogonalLoop=1;jettySize=auto;html=1;" parent="1" source="ZYL11sRJDs-3X7gfMseh-4" target="ZYL11sRJDs-3X7gfMseh-5" edge="1">
                    <mxGeometry relative="1" as="geometry"/>
                </mxCell>
                <mxCell id="ZYL11sRJDs-3X7gfMseh-4" value="input N" style="rounded=0;whiteSpace=wrap;html=1;" parent="1" vertex="1">
                    <mxGeometry x="310" y="180" width="120" height="60" as="geometry"/>
                </mxCell>
                <mxCell id="ZYL11sRJDs-3X7gfMseh-15" style="edgeStyle=orthogonalEdgeStyle;rounded=0;orthogonalLoop=1;jettySize=auto;html=1;exitX=1;exitY=0.5;exitDx=0;exitDy=0;entryX=0.5;entryY=0;entryDx=0;entryDy=0;" parent="1" source="ZYL11sRJDs-3X7gfMseh-5" target="ZYL11sRJDs-3X7gfMseh-6" edge="1">
                    <mxGeometry relative="1" as="geometry"/>
                </mxCell>
                <mxCell id="ZYL11sRJDs-3X7gfMseh-20" style="edgeStyle=orthogonalEdgeStyle;rounded=0;orthogonalLoop=1;jettySize=auto;html=1;exitX=0;exitY=0.5;exitDx=0;exitDy=0;entryX=0.5;entryY=0;entryDx=0;entryDy=0;" parent="1" source="ZYL11sRJDs-3X7gfMseh-5" target="ZYL11sRJDs-3X7gfMseh-9" edge="1">
                    <mxGeometry relative="1" as="geometry"/>
                </mxCell>
                <mxCell id="ZYL11sRJDs-3X7gfMseh-5" value="n&amp;lt;=0 or n &amp;gt; 100&amp;nbsp;" style="rhombus;whiteSpace=wrap;html=1;" parent="1" vertex="1">
                    <mxGeometry x="330" y="280" width="80" height="80" as="geometry"/>
                </mxCell>
                <mxCell id="ZYL11sRJDs-3X7gfMseh-16" value="" style="edgeStyle=orthogonalEdgeStyle;rounded=0;orthogonalLoop=1;jettySize=auto;html=1;" parent="1" source="ZYL11sRJDs-3X7gfMseh-6" target="ZYL11sRJDs-3X7gfMseh-7" edge="1">
                    <mxGeometry relative="1" as="geometry"/>
                </mxCell>
                <mxCell id="ZYL11sRJDs-3X7gfMseh-6" value="input array values" style="rounded=0;whiteSpace=wrap;html=1;" parent="1" vertex="1">
                    <mxGeometry x="530" y="350" width="120" height="60" as="geometry"/>
                </mxCell>
                <mxCell id="ZYL11sRJDs-3X7gfMseh-17" value="" style="edgeStyle=orthogonalEdgeStyle;rounded=0;orthogonalLoop=1;jettySize=auto;html=1;" parent="1" source="ZYL11sRJDs-3X7gfMseh-7" target="ZYL11sRJDs-3X7gfMseh-8" edge="1">
                    <mxGeometry relative="1" as="geometry"/>
                </mxCell>
                <mxCell id="ZYL11sRJDs-3X7gfMseh-7" value="print" style="rounded=0;whiteSpace=wrap;html=1;" parent="1" vertex="1">
                    <mxGeometry x="530" y="470" width="120" height="60" as="geometry"/>
                </mxCell>
                <mxCell id="ZYL11sRJDs-3X7gfMseh-18" style="edgeStyle=orthogonalEdgeStyle;rounded=0;orthogonalLoop=1;jettySize=auto;html=1;exitX=0.5;exitY=1;exitDx=0;exitDy=0;entryX=1;entryY=0.5;entryDx=0;entryDy=0;" parent="1" source="ZYL11sRJDs-3X7gfMseh-8" target="ZYL11sRJDs-3X7gfMseh-11" edge="1">
                    <mxGeometry relative="1" as="geometry"/>
                </mxCell>
                <mxCell id="ZYL11sRJDs-3X7gfMseh-8" value="Check primes and print" style="rounded=0;whiteSpace=wrap;html=1;" parent="1" vertex="1">
                    <mxGeometry x="525" y="585" width="130" height="60" as="geometry"/>
                </mxCell>
                <mxCell id="ZYL11sRJDs-3X7gfMseh-19" style="edgeStyle=orthogonalEdgeStyle;rounded=0;orthogonalLoop=1;jettySize=auto;html=1;exitX=0.5;exitY=1;exitDx=0;exitDy=0;entryX=0;entryY=0.5;entryDx=0;entryDy=0;" parent="1" source="ZYL11sRJDs-3X7gfMseh-9" target="ZYL11sRJDs-3X7gfMseh-11" edge="1">
                    <mxGeometry relative="1" as="geometry"/>
                </mxCell>
                <mxCell id="ZYL11sRJDs-3X7gfMseh-9" value="print Error" style="rounded=0;whiteSpace=wrap;html=1;" parent="1" vertex="1">
                    <mxGeometry x="130" y="540" width="120" height="60" as="geometry"/>
                </mxCell>
                <mxCell id="ZYL11sRJDs-3X7gfMseh-11" value="End" style="ellipse;whiteSpace=wrap;html=1;" parent="1" vertex="1">
                    <mxGeometry x="320" y="660" width="120" height="80" as="geometry"/>
                </mxCell>
                <mxCell id="ZYL11sRJDs-3X7gfMseh-21" value="Yes" style="text;html=1;align=center;verticalAlign=middle;whiteSpace=wrap;rounded=0;" parent="1" vertex="1">
                    <mxGeometry x="136" y="400" width="60" height="30" as="geometry"/>
                </mxCell>
                <mxCell id="ZYL11sRJDs-3X7gfMseh-23" value="No" style="text;html=1;align=center;verticalAlign=middle;whiteSpace=wrap;rounded=0;" parent="1" vertex="1">
                    <mxGeometry x="577" y="305" width="60" height="30" as="geometry"/>
                </mxCell>
                <mxCell id="ZYL11sRJDs-3X7gfMseh-29" value="" style="edgeStyle=orthogonalEdgeStyle;rounded=0;orthogonalLoop=1;jettySize=auto;html=1;" parent="1" source="ZYL11sRJDs-3X7gfMseh-24" target="ZYL11sRJDs-3X7gfMseh-25" edge="1">
                    <mxGeometry relative="1" as="geometry"/>
                </mxCell>
                <mxCell id="ZYL11sRJDs-3X7gfMseh-24" value="For&amp;nbsp; each number" style="rounded=0;whiteSpace=wrap;html=1;" parent="1" vertex="1">
                    <mxGeometry x="920" y="305" width="120" height="60" as="geometry"/>
                </mxCell>
                <mxCell id="ZYL11sRJDs-3X7gfMseh-30" style="edgeStyle=orthogonalEdgeStyle;rounded=0;orthogonalLoop=1;jettySize=auto;html=1;exitX=1;exitY=0.5;exitDx=0;exitDy=0;entryX=0.5;entryY=0;entryDx=0;entryDy=0;" parent="1" source="ZYL11sRJDs-3X7gfMseh-25" target="ZYL11sRJDs-3X7gfMseh-27" edge="1">
                    <mxGeometry relative="1" as="geometry"/>
                </mxCell>
                <mxCell id="ZYL11sRJDs-3X7gfMseh-31" style="edgeStyle=orthogonalEdgeStyle;rounded=0;orthogonalLoop=1;jettySize=auto;html=1;exitX=0;exitY=0.5;exitDx=0;exitDy=0;" parent="1" source="ZYL11sRJDs-3X7gfMseh-25" target="ZYL11sRJDs-3X7gfMseh-26" edge="1">
                    <mxGeometry relative="1" as="geometry"/>
                </mxCell>
                <mxCell id="ZYL11sRJDs-3X7gfMseh-25" value="is prime" style="rhombus;whiteSpace=wrap;html=1;" parent="1" vertex="1">
                    <mxGeometry x="940" y="395" width="80" height="80" as="geometry"/>
                </mxCell>
                <mxCell id="ZYL11sRJDs-3X7gfMseh-26" value="print number" style="rounded=0;whiteSpace=wrap;html=1;" parent="1" vertex="1">
                    <mxGeometry x="800" y="520" width="120" height="60" as="geometry"/>
                </mxCell>
                <mxCell id="ZYL11sRJDs-3X7gfMseh-27" value="print" style="rounded=0;whiteSpace=wrap;html=1;" parent="1" vertex="1">
                    <mxGeometry x="1050" y="520" width="120" height="60" as="geometry"/>
                </mxCell>
                <mxCell id="ZYL11sRJDs-3X7gfMseh-33" value="Yes" style="text;html=1;align=center;verticalAlign=middle;whiteSpace=wrap;rounded=0;" parent="1" vertex="1">
                    <mxGeometry x="850" y="465" width="60" height="30" as="geometry"/>
                </mxCell>
                <mxCell id="ZYL11sRJDs-3X7gfMseh-34" value="No" style="text;html=1;align=center;verticalAlign=middle;whiteSpace=wrap;rounded=0;" parent="1" vertex="1">
                    <mxGeometry x="1110" y="465" width="60" height="30" as="geometry"/>
                </mxCell>
            </root>
        </mxGraphModel>
    </diagram>
</mxfile>